<?xml version="1.0" encoding="UTF-8"?>
<svg xmlns="http://www.w3.org/2000/svg" xmlns:xlink="http://www.w3.org/1999/xlink" width="541pt" height="197pt" viewBox="0 0 541 197" version="1.1">
<g id="surface1">
<path style=" stroke:none;fill-rule:nonzero;fill:rgb(71.398926%,12.5%,34.899902%);fill-opacity:1;" d="M 474.261719 117.589844 L 474.261719 76.476563 L 482.011719 76.476563 L 482.011719 93.492188 L 499.148438 76.476563 L 508.636719 76.476563 L 489.730469 94.757813 L 510.882813 117.589844 L 500.875 117.589844 L 482.011719 96.585938 L 482.011719 117.589844 L 474.261719 117.589844 "/>
<path style=" stroke:none;fill-rule:nonzero;fill:rgb(71.398926%,12.5%,34.899902%);fill-opacity:1;" d="M 425.949219 117.589844 L 425.949219 74.84375 L 456.246094 99.980469 C 457.078125 100.691406 457.914063 101.445313 458.757813 102.253906 C 459.601563 103.058594 460.492188 103.96875 461.425781 104.984375 L 461.425781 76.476563 L 468.601563 76.476563 L 468.601563 119.191406 L 437.683594 93.605469 C 436.859375 92.914063 436.058594 92.1875 435.292969 91.421875 C 434.515625 90.644531 433.78125 89.847656 433.089844 89.003906 L 433.089844 117.589844 L 425.949219 117.589844 "/>
<path style=" stroke:none;fill-rule:nonzero;fill:rgb(71.398926%,12.5%,34.899902%);fill-opacity:1;" d="M 413.882813 117.589844 L 408.46875 106.996094 L 389.585938 106.996094 L 384.046875 117.589844 L 375.894531 117.589844 L 398.992188 74.84375 L 422.058594 117.589844 Z M 392.441406 101.4375 L 405.730469 101.4375 L 400.851563 92.0625 C 400.570313 91.457031 400.273438 90.769531 399.972656 89.992188 C 399.671875 89.214844 399.359375 88.351563 399.058594 87.394531 C 398.792969 88.296875 398.523438 89.136719 398.226563 89.914063 C 397.9375 90.691406 397.636719 91.398438 397.335938 92.0625 L 392.441406 101.4375 "/>
<path style=" stroke:none;fill-rule:nonzero;fill:rgb(71.398926%,12.5%,34.899902%);fill-opacity:1;" d="M 345.542969 117.589844 L 345.542969 76.476563 L 357.566406 76.476563 C 361.003906 76.476563 363.539063 76.636719 365.175781 76.953125 C 366.808594 77.269531 368.210938 77.796875 369.355469 78.527344 C 370.835938 79.464844 371.980469 80.691406 372.789063 82.207031 C 373.601563 83.722656 374.015625 85.398438 374.015625 87.230469 C 374.015625 89.425781 373.425781 91.257813 372.257813 92.722656 C 371.078125 94.191406 369.378906 95.214844 367.140625 95.800781 C 369.921875 96.175781 372.113281 97.265625 373.714844 99.070313 C 375.304688 100.882813 376.105469 103.152344 376.105469 105.902344 C 376.105469 107.574219 375.773438 109.152344 375.09375 110.648438 C 374.425781 112.15625 373.46875 113.429688 372.222656 114.472656 C 370.921875 115.613281 369.3125 116.417969 367.375 116.890625 C 365.441406 117.359375 362.191406 117.589844 357.632813 117.589844 Z M 353.140625 112 L 355.808594 112 C 358.523438 112 360.558594 111.90625 361.902344 111.722656 C 363.25 111.53125 364.304688 111.207031 365.09375 110.734375 C 366.050781 110.199219 366.785156 109.460938 367.308594 108.550781 C 367.832031 107.628906 368.089844 106.621094 368.089844 105.511719 C 368.089844 104.207031 367.777344 103.058594 367.140625 102.089844 C 366.507813 101.109375 365.605469 100.355469 364.4375 99.816406 C 363.703125 99.492188 362.859375 99.261719 361.914063 99.109375 C 360.96875 98.964844 359.714844 98.886719 358.15625 98.886719 L 353.140625 98.886719 Z M 353.140625 93.835938 L 356.097656 93.835938 C 359.789063 93.835938 362.402344 93.402344 363.9375 92.53125 C 365.464844 91.660156 366.230469 90.191406 366.230469 88.132813 C 366.230469 85.886719 365.527344 84.308594 364.117188 83.394531 C 362.703125 82.484375 360.035156 82.035156 356.097656 82.035156 L 353.140625 82.035156 L 353.140625 93.835938 "/>
<path style=" stroke:none;fill-rule:nonzero;fill:rgb(71.398926%,12.5%,34.899902%);fill-opacity:1;" d="M 287.078125 109.355469 L 293.011719 106.890625 C 293.574219 108.722656 294.609375 110.121094 296.105469 111.082031 C 297.609375 112.050781 299.527344 112.527344 301.855469 112.527344 C 304.0625 112.527344 305.820313 111.972656 307.121094 110.871094 C 308.425781 109.765625 309.074219 108.292969 309.074219 106.441406 C 309.074219 104.023438 306.847656 101.867188 302.386719 99.980469 C 301.757813 99.703125 301.289063 99.492188 300.945313 99.367188 C 295.910156 97.152344 292.550781 95.160156 290.878906 93.367188 C 289.203125 91.582031 288.359375 89.386719 288.359375 86.808594 C 288.359375 83.453125 289.628906 80.742188 292.15625 78.660156 C 294.6875 76.578125 298.003906 75.546875 302.109375 75.546875 C 305.480469 75.546875 308.308594 76.128906 310.578125 77.300781 C 312.851563 78.46875 314.421875 80.15625 315.292969 82.34375 L 309.480469 85.035156 C 308.5625 83.742188 307.5625 82.800781 306.460938 82.207031 C 305.371094 81.605469 304.113281 81.304688 302.695313 81.304688 C 300.699219 81.304688 299.113281 81.777344 297.9375 82.707031 C 296.753906 83.644531 296.167969 84.902344 296.167969 86.472656 C 296.167969 88.945313 298.75 91.246094 303.921875 93.375 C 304.316406 93.546875 304.628906 93.683594 304.851563 93.769531 C 309.371094 95.648438 312.476563 97.476563 314.171875 99.261719 C 315.859375 101.054688 316.703125 103.285156 316.703125 105.960938 C 316.703125 109.855469 315.335938 112.949219 312.605469 115.242188 C 309.875 117.53125 306.195313 118.683594 301.542969 118.683594 C 297.652344 118.683594 294.460938 117.878906 291.964844 116.265625 C 289.480469 114.65625 287.847656 112.355469 287.078125 109.355469 "/>
<path style=" stroke:none;fill-rule:nonzero;fill:rgb(71.398926%,12.5%,34.899902%);fill-opacity:1;" d="M 273.449219 117.589844 L 273.449219 76.476563 L 280.882813 76.476563 L 280.882813 117.589844 L 273.449219 117.589844 "/>
<path style=" stroke:none;fill-rule:nonzero;fill:rgb(71.398926%,12.5%,34.899902%);fill-opacity:1;" d="M 228.863281 117.589844 L 243.699219 96.078125 L 230.578125 76.476563 L 238.386719 76.476563 L 244.980469 86.53125 C 245.34375 87.046875 245.992188 88.140625 246.953125 89.789063 L 247.421875 90.605469 C 247.753906 90.019531 248.125 89.40625 248.53125 88.746094 C 248.9375 88.09375 249.394531 87.375 249.917969 86.589844 L 256.882813 76.476563 L 264.511719 76.476563 L 251.132813 95.964844 L 265.546875 117.589844 L 257.320313 117.589844 L 249.671875 105.933594 L 249.546875 105.742188 C 248.714844 104.332031 247.945313 103.019531 247.230469 101.78125 C 246.878906 102.414063 246.496094 103.078125 246.078125 103.757813 C 245.660156 104.4375 245.214844 105.136719 244.734375 105.847656 L 236.734375 117.589844 L 228.863281 117.589844 "/>
<path style=" stroke:none;fill-rule:nonzero;fill:rgb(71.398926%,12.5%,34.899902%);fill-opacity:1;" d="M 219.335938 117.589844 L 214.140625 106.996094 L 196.027344 106.996094 L 190.71875 117.589844 L 182.898438 117.589844 L 205.054688 74.84375 L 227.175781 117.589844 Z M 198.769531 101.4375 L 211.519531 101.4375 L 206.835938 92.0625 C 206.566406 91.457031 206.28125 90.769531 205.992188 89.992188 C 205.703125 89.214844 205.40625 88.351563 205.117188 87.394531 C 204.863281 88.296875 204.605469 89.136719 204.316406 89.914063 C 204.039063 90.691406 203.753906 91.398438 203.464844 92.0625 L 198.769531 101.4375 "/>
<path style=" stroke:none;fill-rule:evenodd;fill:rgb(71.398926%,12.5%,34.899902%);fill-opacity:1;" d="M 30.800781 155.03125 L 97.457031 41.160156 L 118.011719 75.597656 L 73.570313 154.476563 L 30.800781 155.03125 "/>
<path style=" stroke:none;fill-rule:evenodd;fill:rgb(71.398926%,12.5%,34.899902%);fill-opacity:1;" d="M 98.011719 111.707031 L 139.117188 111.148438 L 164.117188 154.476563 L 121.898438 154.476563 L 98.011719 111.707031 "/>
<path style="fill:none;stroke-width:2.16;stroke-linecap:butt;stroke-linejoin:miter;stroke:rgb(13.699341%,12.199402%,12.5%);stroke-opacity:1;stroke-miterlimit:2.61313;" d="M 8.320313 1967.734375 L 5408.515625 1967.734375 L 5408.515625 10.3125 L 8.320313 10.3125 Z M 8.320313 1967.734375 " transform="matrix(0.1,0,0,-0.1,0,197)"/>
</g>
</svg>
