<?xml version="1.0" encoding="UTF-8"?>
<svg xmlns="http://www.w3.org/2000/svg" xmlns:xlink="http://www.w3.org/1999/xlink" width="75pt" height="59pt" viewBox="0 0 75 59" version="1.1">
<g id="surface1">
<path style=" stroke:none;fill-rule:evenodd;fill:rgb(79.598999%,14.099121%,17.599487%);fill-opacity:1;" d="M 13.476563 24.089844 C 14.398438 23.914063 14.390625 24.832031 14.039063 25.40625 C 13.777344 25.835938 13.296875 26.328125 12.675781 26.46875 C 11.878906 26.648438 11.597656 25.972656 12.078125 25.132813 C 12.324219 24.699219 12.84375 24.207031 13.476563 24.089844 Z M 10.414063 24.46875 C 10.328125 24.582031 10.019531 24.808594 9.902344 24.917969 C 9.644531 25.152344 9.191406 25.660156 8.964844 25.917969 C 7.667969 27.394531 6.222656 30.304688 7.089844 32.316406 C 7.554688 33.394531 8.472656 33.695313 9.5625 33.738281 C 9.875 33.105469 10.25 31.523438 10.347656 30.789063 C 10.386719 30.507813 10.417969 30.191406 10.402344 29.898438 C 10.386719 29.589844 10.308594 29.40625 10.023438 29.355469 C 9.425781 29.25 8.867188 29.886719 8.582031 29.652344 C 8.476563 29.425781 8.75 29.160156 8.851563 29.050781 C 9.335938 28.523438 10.910156 27.378906 11.554688 27.121094 C 12.054688 26.921875 12.757813 27.007813 12.921875 27.4375 C 13.050781 27.777344 12.695313 28.527344 12.582031 28.855469 C 12.222656 29.90625 11.410156 32.289063 11.421875 33.265625 L 11.433594 33.308594 C 12.5625 32.785156 13.636719 32.078125 14.472656 31.183594 C 14.59375 31.050781 14.71875 30.941406 14.832031 30.804688 C 14.941406 30.667969 15.0625 30.554688 15.171875 30.410156 C 15.28125 30.269531 15.382813 30.140625 15.496094 29.996094 C 15.921875 29.441406 16.289063 28.800781 16.59375 28.148438 C 16.667969 27.988281 16.980469 27.109375 17.011719 27.070313 C 17.226563 25.4375 16.828125 23.800781 15.214844 23.265625 C 15.019531 23.203125 14.738281 23.195313 14.566406 23.109375 L 13.910156 23.109375 C 13.835938 23.132813 13.484375 23.160156 13.367188 23.179688 C 12.453125 23.335938 11.027344 23.941406 10.414063 24.46875 "/>
<path style=" stroke:none;fill-rule:evenodd;fill:rgb(17.999268%,18.798828%,57.299805%);fill-opacity:1;" d="M 26.027344 33.394531 C 25.816406 33.78125 25.695313 33.972656 25.359375 34.191406 C 25.042969 34.398438 24.597656 34.484375 24.152344 34.445313 C 23.183594 34.351563 22.960938 33.601563 23.234375 32.640625 C 23.46875 31.835938 23.875 31.257813 24.503906 30.960938 C 24.847656 30.796875 25.324219 30.703125 25.761719 30.792969 C 26.402344 30.925781 26.328125 31.34375 26.371094 31.628906 L 28.542969 31.625 C 28.675781 31.144531 28.578125 30.628906 28.335938 30.316406 C 27.605469 29.382813 25.507813 29.441406 24.445313 29.652344 C 22.683594 30.003906 21.542969 31.066406 21.066406 32.652344 C 20.742188 33.730469 20.933594 34.515625 21.570313 35.0625 C 22.683594 36.023438 26.375 35.980469 27.640625 34.402344 C 27.800781 34.207031 28.15625 33.71875 28.207031 33.394531 L 26.027344 33.394531 "/>
<path style=" stroke:none;fill-rule:evenodd;fill:rgb(17.999268%,18.798828%,57.299805%);fill-opacity:1;" d="M 39.40625 33.394531 L 37.230469 33.394531 C 37.148438 33.492188 37.050781 33.714844 36.960938 33.824219 C 36.578125 34.292969 36.050781 34.496094 35.378906 34.445313 C 34.398438 34.371094 34.15625 33.652344 34.421875 32.671875 C 34.761719 31.421875 35.699219 30.585938 36.917969 30.785156 C 37.375 30.859375 37.578125 31.117188 37.550781 31.628906 L 39.738281 31.628906 C 39.894531 31.191406 39.75 30.617188 39.546875 30.335938 C 39.335938 30.050781 39 29.847656 38.558594 29.714844 C 37.742188 29.46875 36.503906 29.480469 35.652344 29.648438 C 33.902344 29.992188 32.730469 31.070313 32.265625 32.644531 C 31.957031 33.695313 32.117188 34.5 32.742188 35.042969 C 33.84375 36 36.691406 35.804688 37.9375 35.128906 C 38.328125 34.914063 38.597656 34.675781 38.828125 34.410156 C 39 34.210938 39.351563 33.71875 39.40625 33.394531 "/>
<path style=" stroke:none;fill-rule:evenodd;fill:rgb(17.999268%,18.798828%,57.299805%);fill-opacity:1;" d="M 47.179688 32.894531 C 47.789063 32.90625 48.507813 32.859375 49.09375 32.917969 C 49.746094 32.988281 50.105469 33.214844 49.851563 33.929688 C 49.675781 34.410156 49.261719 34.613281 48.65625 34.667969 C 48.058594 34.71875 47.320313 34.679688 46.703125 34.679688 Z M 47.828125 30.457031 C 48.414063 30.460938 49.027344 30.433594 49.609375 30.472656 C 50.179688 30.507813 50.652344 30.660156 50.359375 31.332031 C 50.179688 31.753906 49.765625 31.898438 49.199219 31.9375 C 48.632813 31.980469 48.015625 31.957031 47.4375 31.953125 Z M 50.289063 32.386719 C 50.902344 32.21875 51.4375 31.992188 51.746094 31.410156 C 52.109375 30.730469 52.039063 30.015625 51.429688 29.710938 C 50.878906 29.433594 49.875 29.507813 49.199219 29.507813 C 48.417969 29.507813 47.539063 29.472656 46.773438 29.511719 C 46.6875 29.640625 46.410156 30.796875 46.34375 31.050781 C 46.203125 31.570313 46.066406 32.085938 45.925781 32.597656 C 45.753906 33.242188 45.203125 35.175781 45.105469 35.675781 C 46.007813 35.675781 46.90625 35.675781 47.808594 35.675781 C 48.683594 35.675781 49.433594 35.710938 50.160156 35.355469 C 51.246094 34.820313 51.753906 33.460938 51.179688 32.824219 C 50.855469 32.472656 50.589844 32.5 50.289063 32.386719 "/>
<path style=" stroke:none;fill-rule:evenodd;fill:rgb(17.999268%,18.798828%,57.299805%);fill-opacity:1;" d="M 69.179688 31.390625 L 69.179688 31.378906 C 68.707031 31.371094 68.234375 31.378906 67.761719 31.375 C 67.609375 31.375 67.585938 31.371094 67.484375 31.445313 C 66.917969 31.859375 65.679688 32.792969 65.222656 33.074219 L 66.175781 29.511719 L 64.925781 29.511719 L 63.28125 35.679688 L 64.527344 35.671875 L 65.140625 33.386719 C 65.257813 33.5 65.882813 34.390625 65.984375 34.539063 L 66.796875 35.675781 L 68.511719 35.679688 L 67.578125 34.445313 C 67.410156 34.234375 67.265625 34.039063 67.105469 33.828125 L 66.652344 33.222656 C 66.730469 33.125 67.148438 32.855469 67.273438 32.761719 L 69.179688 31.390625 "/>
<path style=" stroke:none;fill-rule:evenodd;fill:rgb(94.499207%,35.299683%,15.299988%);fill-opacity:1;" d="M 5.445313 32.03125 L 5.445313 32.933594 C 5.488281 33.027344 5.5 33.292969 5.523438 33.417969 C 5.730469 34.375 6.257813 35.171875 7.242188 35.515625 C 8.023438 35.785156 8.414063 35.691406 8.816406 35.175781 C 9.09375 34.820313 9.402344 34.226563 9.5625 33.738281 C 8.472656 33.695313 7.554688 33.394531 7.089844 32.316406 C 6.222656 30.304688 7.667969 27.394531 8.964844 25.917969 C 9.191406 25.660156 9.644531 25.152344 9.902344 24.917969 C 10.019531 24.808594 10.328125 24.582031 10.414063 24.46875 C 10.214844 24.546875 9.660156 25.003906 9.496094 25.144531 C 8.054688 26.351563 6.914063 27.847656 6.125 29.597656 C 5.898438 30.105469 5.667969 30.8125 5.5625 31.378906 C 5.527344 31.5625 5.519531 31.890625 5.445313 32.03125 "/>
<path style=" stroke:none;fill-rule:evenodd;fill:rgb(17.999268%,18.798828%,57.299805%);fill-opacity:1;" d="M 55.292969 33.699219 C 55.167969 34.808594 53.628906 35.335938 53.0625 34.894531 C 52.792969 34.683594 52.898438 33.992188 53.558594 33.796875 C 53.964844 33.675781 54.832031 33.664063 55.292969 33.699219 Z M 52.777344 35.785156 L 53.296875 35.785156 C 53.410156 35.742188 53.640625 35.738281 53.777344 35.703125 C 53.925781 35.667969 54.070313 35.621094 54.207031 35.558594 C 54.53125 35.421875 54.679688 35.285156 54.929688 35.121094 L 54.8125 35.679688 L 56.089844 35.671875 C 56.191406 34.929688 56.421875 34.191406 56.613281 33.492188 C 56.820313 32.730469 57.023438 31.933594 56.339844 31.535156 C 55.757813 31.199219 54.679688 31.21875 53.984375 31.386719 C 53.386719 31.527344 52.648438 31.9375 52.507813 32.5625 L 53.71875 32.5625 C 53.980469 32.089844 54.277344 31.945313 54.898438 31.972656 C 55.589844 32 55.617188 32.347656 55.5 32.957031 C 54.285156 32.949219 52.964844 32.910156 52.152344 33.558594 C 51.867188 33.785156 51.480469 34.386719 51.613281 34.976563 C 51.78125 35.710938 52.621094 35.714844 52.777344 35.785156 "/>
<path style=" stroke:none;fill-rule:evenodd;fill:rgb(17.999268%,18.798828%,57.299805%);fill-opacity:1;" d="M 39.582031 35.664063 L 39.710938 35.671875 L 41.566406 35.671875 L 41.773438 35.667969 L 43.480469 29.519531 L 43.3125 29.515625 L 41.289063 29.515625 L 39.582031 35.664063 "/>
<path style=" stroke:none;fill-rule:evenodd;fill:rgb(17.999268%,18.798828%,57.299805%);fill-opacity:1;" d="M 21.082031 29.515625 L 18.941406 29.515625 C 18.867188 29.535156 18.828125 29.765625 18.792969 29.890625 C 18.59375 30.625 17.222656 35.46875 17.199219 35.671875 L 19.378906 35.671875 L 21.082031 29.515625 "/>
<path style=" stroke:none;fill-rule:evenodd;fill:rgb(17.999268%,18.798828%,57.299805%);fill-opacity:1;" d="M 32.28125 29.515625 L 30.097656 29.519531 L 28.398438 35.671875 L 30.574219 35.667969 L 32.28125 29.515625 "/>
<path style=" stroke:none;fill-rule:evenodd;fill:rgb(17.999268%,18.798828%,57.299805%);fill-opacity:1;" d="M 59.5 31.375 L 58.25 31.375 C 58.152344 31.695313 58.09375 32.148438 58.015625 32.5 C 57.804688 33.429688 57.347656 34.8125 57.171875 35.675781 L 58.453125 35.675781 C 58.648438 34.972656 58.820313 34.246094 59.023438 33.53125 C 59.460938 31.980469 61.09375 31.902344 61.449219 32.394531 C 61.667969 32.695313 61.578125 33.167969 61.476563 33.535156 L 60.90625 35.679688 L 62.167969 35.667969 C 62.316406 35.042969 62.5 34.402344 62.671875 33.777344 C 62.835938 33.191406 63.132813 32.398438 62.765625 31.84375 C 62.449219 31.355469 61.707031 31.210938 60.9375 31.308594 C 60.59375 31.351563 60.296875 31.453125 60.03125 31.597656 C 59.71875 31.773438 59.59375 31.921875 59.363281 32.101563 L 59.5 31.375 "/>
<path style=" stroke:none;fill-rule:evenodd;fill:rgb(94.499207%,35.299683%,15.299988%);fill-opacity:1;" d="M 11.421875 33.265625 C 11.339844 33.40625 11.402344 33.910156 11.449219 34.0625 C 11.703125 34.886719 12.578125 34.007813 13.019531 33.65625 C 13.667969 33.136719 14.234375 32.503906 14.757813 31.875 C 15.628906 30.824219 16.792969 28.867188 17.011719 27.070313 C 16.980469 27.109375 16.667969 27.988281 16.59375 28.148438 C 16.289063 28.800781 15.921875 29.441406 15.496094 29.996094 C 15.382813 30.140625 15.28125 30.269531 15.171875 30.410156 C 15.0625 30.554688 14.941406 30.667969 14.832031 30.804688 C 14.71875 30.941406 14.59375 31.050781 14.472656 31.183594 C 13.636719 32.078125 12.5625 32.785156 11.433594 33.308594 L 11.421875 33.265625 "/>
<path style=" stroke:none;fill-rule:evenodd;fill:rgb(100%,100%,100%);fill-opacity:1;" d="M 13.476563 24.089844 C 12.84375 24.207031 12.324219 24.699219 12.078125 25.132813 C 11.597656 25.972656 11.878906 26.648438 12.675781 26.46875 C 13.296875 26.328125 13.777344 25.835938 14.039063 25.40625 C 14.390625 24.832031 14.398438 23.914063 13.476563 24.089844 "/>
</g>
</svg>
