<?xml version="1.0" encoding="UTF-8"?>
<svg xmlns="http://www.w3.org/2000/svg" xmlns:xlink="http://www.w3.org/1999/xlink" width="75pt" height="59pt" viewBox="0 0 75 59" version="1.1">
<g id="surface1">
<path style=" stroke:none;fill-rule:evenodd;fill:rgb(94.499207%,35.299683%,13.299561%);fill-opacity:1;" d="M 9.140625 22.832031 C 9.878906 23.269531 10.964844 23.4375 12.398438 23.351563 C 13.371094 23.289063 14.320313 23.277344 15.136719 23.492188 L 13.714844 20.507813 C 13.714844 20.507813 9.121094 22.789063 9.140625 22.832031 "/>
<path style=" stroke:none;fill-rule:evenodd;fill:rgb(94.499207%,35.299683%,13.299561%);fill-opacity:1;" d="M 7.351563 25.246094 L 10.035156 30.871094 L 14.472656 28.890625 C 14.554688 25.34375 9.714844 25.753906 7.351563 25.246094 "/>
<path style=" stroke:none;fill-rule:evenodd;fill:rgb(55.299377%,77.598572%,24.699402%);fill-opacity:1;" d="M 10.726563 33.808594 L 16.601563 38.992188 L 21.367188 33.738281 C 20.535156 31.582031 19.109375 30.457031 16.800781 30.886719 L 15.8125 33.234375 C 14.179688 33.445313 12.910156 33.15625 12.089844 32.265625 L 10.726563 33.808594 "/>
<path style=" stroke:none;fill-rule:evenodd;fill:rgb(0%,64.698792%,89.7995%);fill-opacity:1;" d="M 19.179688 21.324219 L 26.75 24.378906 L 23.664063 31.769531 C 23.347656 29.421875 21.953125 28.28125 19.671875 28.136719 C 20.003906 27.605469 20.378906 27.148438 20.859375 26.890625 L 21.277344 26.84375 L 21.1875 26.574219 C 20.9375 26.386719 20.683594 26.261719 20.433594 26.191406 C 19.601563 26.203125 18.660156 26.605469 17.757813 26.890625 L 17.488281 26.046875 C 17.402344 25.785156 17.449219 25.605469 17.507813 25.460938 L 19.179688 21.324219 "/>
<path style=" stroke:none;fill-rule:evenodd;fill:rgb(13.699341%,12.199402%,12.5%);fill-opacity:1;" d="M 30.132813 29.234375 L 30.160156 33.382813 C 30.160156 33.667969 30.160156 33.953125 30.085938 34.234375 C 29.757813 35.457031 27.871094 35.367188 27.484375 34.050781 L 26.082031 34.539063 C 26.632813 35.992188 27.734375 36.765625 29.722656 36.449219 C 30.597656 36.1875 31.296875 35.617188 31.597656 34.339844 C 31.683594 33.972656 31.691406 33.648438 31.691406 33.277344 L 31.691406 29.214844 Z M 38.945313 29.152344 L 40.445313 29.152344 L 40.445313 32.371094 L 43.070313 29.164063 L 44.746094 29.164063 L 42.667969 31.695313 L 45.292969 36.425781 L 43.59375 36.425781 L 41.570313 32.996094 L 40.445313 34.398438 L 40.445313 36.449219 L 38.945313 36.449219 Z M 36.367188 30.835938 L 36.976563 29.78125 C 34.699219 27.941406 31.074219 29.9375 33.488281 32.535156 C 31.503906 33.347656 31.542969 35.847656 33.453125 36.484375 C 34.746094 36.722656 35.765625 36.511719 36.527344 35.886719 L 37.011719 36.433594 L 38.667969 36.433594 L 37.375 34.925781 L 38.195313 33.105469 L 37.007813 32.789063 L 36.527344 33.894531 L 34.238281 31.285156 C 33.789063 30.78125 34.441406 30.03125 35.296875 30.386719 Z M 34.210938 33.414063 L 35.671875 34.992188 C 34.070313 35.835938 32.542969 34.710938 34.210938 33.414063 Z M 64.199219 29.367188 L 64.199219 36.433594 L 64.96875 36.433594 L 64.96875 34.835938 L 65.859375 33.671875 L 67.261719 36.464844 L 68.121094 36.464844 L 66.402344 32.976563 L 67.804688 31.027344 L 66.972656 31.027344 L 64.96875 33.703125 L 64.96875 28.945313 Z M 58.980469 31.03125 L 58.980469 36.421875 L 59.824219 36.421875 L 59.824219 33.179688 C 59.824219 31.261719 62.390625 31 62.390625 32.964844 L 62.390625 36.421875 L 63.246094 36.421875 L 63.246094 32.96875 C 63.246094 31.074219 61.078125 30.105469 59.792969 31.632813 L 59.792969 31.015625 Z M 54.269531 31.332031 L 54.605469 32.015625 C 55.75 31.273438 57.035156 31.457031 57.195313 32.324219 L 57.195313 33.320313 C 52.140625 31.878906 53.222656 38.691406 57.246094 35.921875 L 57.355469 36.445313 L 58.027344 36.445313 L 58.027344 32.503906 C 58.027344 30.402344 55.539063 30.757813 54.269531 31.332031 Z M 57.199219 33.921875 L 57.199219 35.214844 C 54.527344 37.617188 52.789063 32.890625 57.199219 33.921875 Z M 48.429688 36.371094 L 51.265625 36.371094 C 51.578125 36.371094 51.855469 36.371094 52.152344 36.257813 C 53.683594 35.648438 53.910156 32.964844 52.039063 32.511719 C 53.226563 32.019531 53.355469 30.082031 52.101563 29.414063 C 51.683594 29.191406 51.265625 29.1875 50.808594 29.1875 L 48.40625 29.1875 C 48.40625 29.1875 48.40625 36.371094 48.429688 36.371094 Z M 49.25 29.976563 L 51.09375 29.976563 C 51.703125 29.976563 52.199219 30.472656 52.199219 31.082031 C 52.199219 31.6875 51.703125 32.1875 51.09375 32.1875 L 49.25 32.1875 Z M 49.25 32.925781 L 51.28125 32.925781 C 51.953125 32.925781 52.5 33.546875 52.5 34.304688 C 52.5 35.066406 51.953125 35.6875 51.28125 35.6875 L 49.25 35.6875 L 49.25 32.925781 "/>
</g>
</svg>
